<svg width="148" height="48" viewBox="0 0 148 48" fill="none" xmlns="http://www.w3.org/2000/svg">
<mask id="path-1-outside-1_1_453" maskUnits="userSpaceOnUse" x="0" y="0" width="148" height="48" fill="black">
<rect fill="white" width="148" height="48"/>
<path d="M1.3782 28.2319V20.1523L39.756 2.42223V12.3814L12.4876 24.0799L12.7962 23.5469V24.8374L12.4876 24.3043L39.756 36.0028V45.962L1.3782 28.2319ZM54.5335 28.2319V20.1523L92.9113 2.42223V12.3814L65.6428 24.0799L65.9514 23.5469V24.8374L65.6428 24.3043L92.9113 36.0028V45.962L54.5335 28.2319ZM107.689 28.2319V20.1523L146.067 2.42223V12.3814L118.798 24.0799L119.107 23.5469V24.8374L118.798 24.3043L146.067 36.0028V45.962L107.689 28.2319Z"/>
</mask>
<path d="M1.3782 28.2319V20.1523L39.756 2.42223V12.3814L12.4876 24.0799L12.7962 23.5469V24.8374L12.4876 24.3043L39.756 36.0028V45.962L1.3782 28.2319ZM54.5335 28.2319V20.1523L92.9113 2.42223V12.3814L65.6428 24.0799L65.9514 23.5469V24.8374L65.6428 24.3043L92.9113 36.0028V45.962L54.5335 28.2319ZM107.689 28.2319V20.1523L146.067 2.42223V12.3814L118.798 24.0799L119.107 23.5469V24.8374L118.798 24.3043L146.067 36.0028V45.962L107.689 28.2319Z" fill="url(#paint0_linear_1_453)"/>
<path d="M1.3782 28.2319H0.378196V28.8715L0.958802 29.1397L1.3782 28.2319ZM1.3782 20.1523L0.958802 19.2445L0.378196 19.5128V20.1523H1.3782ZM39.756 2.42223H40.756V0.858683L39.3366 1.51443L39.756 2.42223ZM39.756 12.3814L40.1503 13.3004L40.756 13.0405V12.3814H39.756ZM12.4876 24.0799L11.6221 23.5789L10.1121 26.1872L12.8818 24.9989L12.4876 24.0799ZM12.7962 23.5469H13.7962V19.8237L11.9307 23.0458L12.7962 23.5469ZM12.7962 24.8374L11.9307 25.3384L13.7962 28.5605V24.8374H12.7962ZM12.4876 24.3043L12.8818 23.3853L10.1121 22.1971L11.6221 24.8054L12.4876 24.3043ZM39.756 36.0028H40.756V35.3437L40.1503 35.0838L39.756 36.0028ZM39.756 45.962L39.3366 46.8698L40.756 47.5256V45.962H39.756ZM1.3782 28.2319H2.3782V20.1523H1.3782H0.378196V28.2319H1.3782ZM1.3782 20.1523L1.79759 21.0601L40.1754 3.33004L39.756 2.42223L39.3366 1.51443L0.958802 19.2445L1.3782 20.1523ZM39.756 2.42223H38.756V12.3814H39.756H40.756V2.42223H39.756ZM39.756 12.3814L39.3618 11.4624L12.0933 23.1609L12.4876 24.0799L12.8818 24.9989L40.1503 13.3004L39.756 12.3814ZM12.4876 24.0799L13.353 24.5809L13.6616 24.0479L12.7962 23.5469L11.9307 23.0458L11.6221 23.5789L12.4876 24.0799ZM12.7962 23.5469H11.7962V24.8374H12.7962H13.7962V23.5469H12.7962ZM12.7962 24.8374L13.6616 24.3363L13.353 23.8033L12.4876 24.3043L11.6221 24.8054L11.9307 25.3384L12.7962 24.8374ZM12.4876 24.3043L12.0933 25.2233L39.3618 36.9218L39.756 36.0028L40.1503 35.0838L12.8818 23.3853L12.4876 24.3043ZM39.756 36.0028H38.756V45.962H39.756H40.756V36.0028H39.756ZM39.756 45.962L40.1754 45.0542L1.79759 27.3241L1.3782 28.2319L0.958802 29.1397L39.3366 46.8698L39.756 45.962ZM54.5335 28.2319H53.5335V28.8715L54.1141 29.1397L54.5335 28.2319ZM54.5335 20.1523L54.1141 19.2445L53.5335 19.5128V20.1523H54.5335ZM92.9113 2.42223H93.9113V0.858683L92.4919 1.51443L92.9113 2.42223ZM92.9113 12.3814L93.3056 13.3004L93.9113 13.0405V12.3814H92.9113ZM65.6428 24.0799L64.7774 23.5789L63.2674 26.1872L66.0371 24.9989L65.6428 24.0799ZM65.9514 23.5469H66.9514V19.8237L65.086 23.0458L65.9514 23.5469ZM65.9514 24.8374L65.086 25.3384L66.9514 28.5605V24.8374H65.9514ZM65.6428 24.3043L66.0371 23.3853L63.2674 22.1971L64.7774 24.8054L65.6428 24.3043ZM92.9113 36.0028H93.9113V35.3437L93.3056 35.0838L92.9113 36.0028ZM92.9113 45.962L92.4919 46.8698L93.9113 47.5256V45.962H92.9113ZM54.5335 28.2319H55.5335V20.1523H54.5335H53.5335V28.2319H54.5335ZM54.5335 20.1523L54.9529 21.0601L93.3307 3.33004L92.9113 2.42223L92.4919 1.51443L54.1141 19.2445L54.5335 20.1523ZM92.9113 2.42223H91.9113V12.3814H92.9113H93.9113V2.42223H92.9113ZM92.9113 12.3814L92.5171 11.4624L65.2486 23.1609L65.6428 24.0799L66.0371 24.9989L93.3056 13.3004L92.9113 12.3814ZM65.6428 24.0799L66.5083 24.5809L66.8169 24.0479L65.9514 23.5469L65.086 23.0458L64.7774 23.5789L65.6428 24.0799ZM65.9514 23.5469H64.9514V24.8374H65.9514H66.9514V23.5469H65.9514ZM65.9514 24.8374L66.8169 24.3363L66.5083 23.8033L65.6428 24.3043L64.7774 24.8054L65.086 25.3384L65.9514 24.8374ZM65.6428 24.3043L65.2486 25.2233L92.5171 36.9218L92.9113 36.0028L93.3056 35.0838L66.0371 23.3853L65.6428 24.3043ZM92.9113 36.0028H91.9113V45.962H92.9113H93.9113V36.0028H92.9113ZM92.9113 45.962L93.3307 45.0542L54.9529 27.3241L54.5335 28.2319L54.1141 29.1397L92.4919 46.8698L92.9113 45.962ZM107.689 28.2319H106.689V28.8715L107.269 29.1397L107.689 28.2319ZM107.689 20.1523L107.269 19.2445L106.689 19.5128V20.1523H107.689ZM146.067 2.42223H147.067V0.858683L145.647 1.51443L146.067 2.42223ZM146.067 12.3814L146.461 13.3004L147.067 13.0405V12.3814H146.067ZM118.798 24.0799L117.933 23.5789L116.423 26.1872L119.192 24.9989L118.798 24.0799ZM119.107 23.5469H120.107V19.8237L118.241 23.0458L119.107 23.5469ZM119.107 24.8374L118.241 25.3384L120.107 28.5605V24.8374H119.107ZM118.798 24.3043L119.192 23.3853L116.423 22.1971L117.933 24.8054L118.798 24.3043ZM146.067 36.0028H147.067V35.3437L146.461 35.0838L146.067 36.0028ZM146.067 45.962L145.647 46.8698L147.067 47.5256V45.962H146.067ZM107.689 28.2319H108.689V20.1523H107.689H106.689V28.2319H107.689ZM107.689 20.1523L108.108 21.0601L146.486 3.33004L146.067 2.42223L145.647 1.51443L107.269 19.2445L107.689 20.1523ZM146.067 2.42223H145.067V12.3814H146.067H147.067V2.42223H146.067ZM146.067 12.3814L145.672 11.4624L118.404 23.1609L118.798 24.0799L119.192 24.9989L146.461 13.3004L146.067 12.3814ZM118.798 24.0799L119.664 24.5809L119.972 24.0479L119.107 23.5469L118.241 23.0458L117.933 23.5789L118.798 24.0799ZM119.107 23.5469H118.107V24.8374H119.107H120.107V23.5469H119.107ZM119.107 24.8374L119.972 24.3363L119.664 23.8033L118.798 24.3043L117.933 24.8054L118.241 25.3384L119.107 24.8374ZM118.798 24.3043L118.404 25.2233L145.672 36.9218L146.067 36.0028L146.461 35.0838L119.192 23.3853L118.798 24.3043ZM146.067 36.0028H145.067V45.962H146.067H147.067V36.0028H146.067ZM146.067 45.962L146.486 45.0542L108.108 27.3241L107.689 28.2319L107.269 29.1397L145.647 46.8698L146.067 45.962Z" fill="white" mask="url(#path-1-outside-1_1_453)"/>
<defs>
<linearGradient id="paint0_linear_1_453" x1="-6" y1="18" x2="154" y2="18" gradientUnits="userSpaceOnUse">
<stop stop-color="white" stop-opacity="0.7"/>
<stop offset="1" stop-color="white" stop-opacity="0.1"/>
</linearGradient>
</defs>
</svg>
