<svg width="405" height="116" viewBox="0 0 405 116" fill="none" xmlns="http://www.w3.org/2000/svg">
<path d="M28.3609 99.5463C28.1828 99.3455 27.9914 99.2105 27.7864 99.1411C27.5737 99.0428 27.4519 98.9357 27.4208 98.8198C27.3898 98.7039 27.3442 98.5919 27.2842 98.4837C27.2454 98.3389 27.1525 98.224 27.0055 98.1391C26.814 98.0041 26.7237 97.609 26.7345 96.9539C26.7375 96.2698 26.8215 95.4242 26.9865 94.4172C27.1438 93.3812 27.3618 92.2823 27.6406 91.1206C27.8103 90.8267 27.9606 90.4603 28.0915 90.0214C28.2224 89.5826 28.3302 89.2897 28.4151 89.1428C28.384 89.0268 28.4003 88.9138 28.464 88.8035C28.5198 88.6643 28.6057 88.5792 28.7216 88.5482L28.6518 88.2874C28.6129 88.1425 28.6773 87.8612 28.845 87.4436C29.0416 87.0182 29.2884 86.5483 29.5853 86.0339C29.8746 85.4906 30.186 84.9723 30.5198 84.4791C30.8457 83.957 31.1303 83.5701 31.3735 83.3186C31.8733 82.7499 32.4303 82.3366 33.0446 82.0789C33.6878 81.8133 34.2916 81.8068 34.8562 82.0593C34.9665 82.1229 35.1502 82.229 35.4074 82.3775C35.6646 82.526 35.9585 82.6957 36.2892 82.8866C36.6411 83.0408 36.9968 83.2095 37.3565 83.3926L39.3491 84.3961L39.1491 86.7791C39.0829 88.0391 39.2533 89.0805 39.6601 89.9032C40.0959 90.7182 40.5875 91.394 41.135 91.9306C41.3653 92.2105 41.7367 92.4371 42.249 92.6104C42.7903 92.776 43.2715 92.8334 43.6927 92.7826C43.9323 92.7495 44.1729 92.7782 44.4146 92.8687C44.6563 92.9593 44.8198 93.1639 44.9052 93.4827C44.9829 93.7724 44.987 94.0198 44.9177 94.2247C44.8484 94.4296 44.6766 94.5999 44.4024 94.7355C43.4771 95.1077 42.5167 95.1165 41.5211 94.7622C40.5544 94.4 39.5447 93.6456 38.4921 92.499C38.3296 92.3562 38.0848 92.0801 37.7577 91.6708C37.4519 91.2248 37.265 90.9332 37.1972 90.7961C37.1202 90.972 36.9766 91.3056 36.7665 91.7967C36.5487 92.2588 36.3762 92.6001 36.2489 92.8205C34.7505 95.4582 33.345 97.3412 32.0322 98.4694C30.7407 99.5608 29.5169 99.9198 28.3609 99.5463ZM29.2734 96.6929C29.3278 96.8957 29.6321 96.8142 30.1862 96.4483C30.7616 96.0456 31.3339 95.4575 31.9031 94.6838C32.6631 93.5795 33.3999 92.3882 34.1134 91.11C34.8559 89.824 35.4149 88.6648 35.7905 87.6324L36.3275 85.8114C35.8591 85.2225 35.42 84.8588 35.0101 84.7201C34.6215 84.5447 34.3113 84.4881 34.0795 84.5502C33.7027 84.6512 33.2309 85.1503 32.6638 86.0476C32.1257 86.9372 31.5918 88.0742 31.062 89.4584C30.5322 90.8427 30.077 92.3313 29.6962 93.9241C29.5618 94.5813 29.4524 95.2162 29.3681 95.8289C29.305 96.4049 29.2734 96.6929 29.2734 96.6929ZM49.2624 94.1787C48.8122 94.2372 48.3539 94.0339 47.8877 93.5687C47.4426 93.0668 47.129 92.5918 46.9468 92.1437C46.9136 91.9041 46.8533 91.5631 46.7658 91.1206C46.7073 90.6704 46.6449 90.2057 46.5786 89.7266C46.547 89.1449 46.5278 88.4357 46.521 87.599C46.5065 86.7333 46.4919 85.8675 46.4773 85.0018C46.4918 84.1283 46.5082 83.3785 46.5268 82.7523C46.5454 82.1262 46.5681 81.7474 46.595 81.616C46.6778 81.3453 46.8941 81.2253 47.2439 81.2558C47.5937 81.2863 47.9011 81.3902 48.1661 81.5677C48.4021 81.7529 48.5772 82.0011 48.6916 82.312C48.835 82.6153 48.9158 83.0906 48.9339 83.7379C48.9811 84.3775 48.99 85.3379 48.9606 86.6192C48.9524 87.8637 48.9584 88.8715 48.9787 89.6425C49.0201 90.3768 49.1602 91.1313 49.3988 91.9059C49.5469 92.9222 49.623 93.5541 49.6272 93.8014C49.6236 94.0198 49.502 94.1455 49.2624 94.1787ZM49.614 75.4961C49.5213 75.6141 49.4171 75.6886 49.3012 75.7197C49.2065 75.714 49.0238 75.6697 48.7531 75.587C48.5425 75.6123 48.2468 75.5518 47.8659 75.4054C47.5063 75.2223 47.1756 75.0313 46.8739 74.8327C46.5934 74.5972 46.4454 74.4505 46.4299 74.3926C46.3232 74.1106 46.2407 73.7445 46.1821 73.2943C46.1448 72.8073 46.1955 72.3589 46.3342 71.9491C46.4651 71.5103 46.7439 71.2181 47.1708 71.0727C47.2868 71.0416 47.3921 71.0289 47.4868 71.0346C47.5815 71.0403 47.8694 71.0718 48.3507 71.1292C48.699 71.5018 49.0628 71.9323 49.4421 72.4208C49.8137 72.8802 50.0549 73.3747 50.1657 73.904C50.2687 74.4044 50.0848 74.9351 49.614 75.4961ZM67.1672 91.7105C66.8138 91.8983 66.4795 91.9258 66.1644 91.7928C65.8859 91.6811 65.6422 91.4669 65.4331 91.1502C65.0227 90.5458 64.6547 89.868 64.3292 89.1166C64.0248 88.3285 63.8201 87.6225 63.715 86.9984L63.5574 86.0623L62.2232 87.864C61.4709 88.9973 60.6816 89.8766 59.8552 90.5018C59.0579 91.1192 58.3114 91.521 57.616 91.7074C57.2817 91.7349 56.9319 91.7044 56.5665 91.6159C56.2012 91.5274 55.8532 91.3878 55.5225 91.1968C55.2208 90.9981 54.9587 90.7733 54.7361 90.5224C54.4536 90.1633 54.2481 89.6282 54.1197 88.9172C54.0203 88.1985 53.9923 87.3985 54.0356 86.5172C54.1003 85.5992 54.2306 84.6946 54.4266 83.8035C54.6439 82.8757 54.9463 82.0337 55.3338 81.2777C55.9018 79.5726 56.6937 78.4131 57.7095 77.7993C58.7252 77.1855 59.8546 77.0537 61.0976 77.4039C61.9364 77.5208 62.4389 77.5414 62.605 77.4659C62.8001 77.3825 62.8846 77.0027 62.8587 76.3264C62.8504 75.8317 62.8421 75.337 62.8337 74.8423C62.8177 74.3186 62.8313 73.6161 62.8747 72.7349C63.009 70.3384 63.1701 68.4473 63.3578 67.0615C63.5745 65.6679 63.7759 64.4493 63.9621 63.4055C64.1023 62.6536 64.2544 62.1781 64.4184 61.9788C64.6037 61.7428 64.8161 61.6083 65.0557 61.5751C65.3744 61.4897 65.6953 61.528 66.0182 61.6899C66.3411 61.8519 66.6293 62.1163 66.8829 62.4831C67.0687 62.7129 67.1743 62.9331 67.1997 63.1437C67.2463 63.3175 67.2253 63.5871 67.1369 63.9525C66.9465 64.7489 66.7458 65.7965 66.5348 67.0954C66.345 68.3575 66.1718 69.7394 66.0151 71.2412C65.8874 72.7351 65.7848 74.2068 65.7073 75.6563C65.6298 77.1057 65.5821 78.3764 65.5641 79.4682C65.561 80.1523 65.6191 81.0064 65.7382 82.0305C65.8862 83.0468 66.0566 84.0882 66.2492 85.1547C66.434 86.1922 66.6206 87.1205 66.8091 87.9397C67.0187 88.7221 67.1836 89.2214 67.3036 89.4377C67.6328 89.9707 67.8217 90.3859 67.8704 90.6835C67.948 90.9733 67.926 91.181 67.8044 91.3068C67.6906 91.4615 67.4782 91.5961 67.1672 91.7105ZM58.5285 88.854C58.9109 88.6583 59.2594 88.3941 59.574 88.0614C59.9176 87.7209 60.264 87.333 60.6133 86.8978C61.304 85.9983 61.8944 85.1879 62.3844 84.4665C62.8744 83.7451 63.0694 82.7922 62.9694 81.6077C62.8798 81.0416 62.7054 80.6224 62.4461 80.3503C62.208 80.0414 61.8763 79.7886 61.4509 79.592C61.0411 79.4534 60.5397 79.4945 59.9467 79.7156C59.3749 79.8998 58.8479 80.3671 58.3657 81.1175C57.841 81.9414 57.3891 82.9787 57.0099 84.2295C56.6597 85.4725 56.5348 86.9191 56.6353 88.5693C56.655 88.8746 56.8041 89.0831 57.0825 89.1949C57.3609 89.3066 57.8429 89.193 58.5285 88.854ZM75.3849 87.5053C74.1305 87.3445 73.2207 86.9049 72.6556 86.1867C72.1117 85.4318 71.7082 84.1578 71.4452 82.3648C71.2624 81.451 71.1322 80.8491 71.0546 80.5594C70.9769 80.2696 70.7399 80.0225 70.3435 79.8182C70.2255 79.7255 70.0234 79.6089 69.7373 79.4681C69.4801 79.3196 69.3465 79.1691 69.3367 79.0164C69.2534 78.8213 69.2096 78.6001 69.2055 78.3528C69.1935 78.0764 69.2455 77.9227 69.3614 77.8917C69.4773 77.8606 69.5855 77.8006 69.6859 77.7116C69.8152 77.6148 69.9456 77.5799 70.0771 77.6068C70.193 77.5757 70.3273 77.5552 70.4799 77.5454C70.6326 77.5356 70.7244 77.5886 70.7555 77.7045C70.9257 77.8763 71.1219 77.8548 71.3438 77.64C71.5581 77.3963 71.7324 76.9458 71.8669 76.2886C72.0324 75.7473 72.2849 75.1827 72.6243 74.5949C72.9927 73.9992 73.3583 73.4509 73.721 72.95C74.1049 72.4123 74.4329 72.0138 74.7051 71.7545C74.8345 71.6577 75.0324 71.5271 75.2989 71.3625C75.5653 71.1979 75.8502 71.0439 76.1534 70.9006C76.4856 70.7494 76.7715 70.6573 77.0111 70.6242C77.5405 70.5134 78.014 70.5418 78.4316 70.7094C78.8782 70.8693 79.3074 71.0804 79.7194 71.3427C80.166 71.5026 80.491 71.7882 80.6944 72.1996C80.9267 72.6032 81.08 73.059 81.154 73.5672C81.228 74.0753 81.218 74.5594 81.1238 75.0195C81.1146 75.3326 80.9614 75.7463 80.6644 76.2607C80.3675 76.7751 80.0086 77.2905 79.588 77.807C79.1673 78.3235 78.7629 78.7269 78.3749 79.0172C78.0214 79.2051 77.5482 79.4095 76.9552 79.6305C76.3912 79.8438 75.8484 80.0203 75.3268 80.16C74.8264 80.2631 74.4776 80.2944 74.2805 80.254C74.0466 80.1925 73.9299 80.3946 73.9304 80.8603C73.931 81.326 74.011 81.9723 74.1705 82.7992C74.2833 83.4523 74.4076 83.9159 74.5432 84.1902C74.6788 84.4644 74.7911 84.6517 74.8801 84.7521C75.1373 84.9006 75.4825 85.0876 75.9156 85.3132C76.37 85.5021 76.9032 85.4058 77.5153 85.0243C78.0271 84.7319 78.4622 84.2116 78.8208 83.4633C79.2083 82.7072 79.5834 82.0787 79.9461 81.5778C80.0077 81.3439 80.165 81.1775 80.418 81.0786C80.6923 80.943 81.0004 80.876 81.3425 80.8775C81.7156 80.9949 81.912 81.2063 81.9317 81.5116C81.9726 81.7802 81.9364 82.2247 81.8231 82.8452C81.7905 83.0713 81.6576 83.3864 81.4242 83.7906C81.2121 84.158 80.9604 84.5516 80.6691 84.9713C80.399 85.3542 80.1423 85.6715 79.8992 85.923C79.1541 86.6196 78.4087 87.0833 77.663 87.3141C76.9096 87.516 76.1502 87.5797 75.3849 87.5053ZM75.5851 77.9944C76.1838 77.6787 76.6637 77.4414 77.0249 77.2825C77.3861 77.1236 77.7056 76.8672 77.9834 76.5132C78.2535 76.1302 78.5445 75.4777 78.8565 74.5555C78.887 74.2057 78.8306 73.8792 78.6872 73.5759C78.5728 73.265 78.4421 73.067 78.2952 72.9822C77.9567 72.7623 77.6147 72.7608 77.269 72.9776C76.9446 73.1577 76.654 73.4064 76.3974 73.7236C76.2179 73.8649 75.9718 74.1638 75.6593 74.6202C75.368 75.0399 75.0922 75.5176 74.832 76.0532C74.564 76.5598 74.3607 77.018 74.222 77.4279C74.0834 77.8377 74.0798 78.0561 74.2112 78.083C74.1843 78.2144 74.3631 78.2442 74.7476 78.1722C75.161 78.0925 75.4402 78.0332 75.5851 77.9944ZM100.092 81.4441C99.802 81.5218 99.455 81.4439 99.0509 81.2106C98.6757 80.9695 98.3101 80.6482 97.954 80.2466C97.6192 79.8084 97.3935 79.3719 97.277 78.9372C97.1606 78.5026 97.0446 77.664 96.9291 76.4216C96.8425 75.1714 96.7956 73.895 96.7882 72.5925C96.8182 71.777 96.7742 71.3229 96.6562 71.2303C96.5382 71.1377 96.1897 71.4019 95.6107 72.0229C95.2594 72.3345 94.9554 72.6488 94.6987 72.9661C94.4343 73.2543 94.2212 73.5599 94.0592 73.8828C93.9454 74.0376 93.7785 74.2842 93.5586 74.6226C93.3387 74.961 93.1005 75.2889 92.8438 75.6061C92.5448 75.9968 92.1753 76.5306 91.7355 77.2075C91.2957 77.8844 90.8559 78.5613 90.4161 79.2382C90.0053 79.9073 89.6939 80.4256 89.4817 80.793C89.4548 80.9245 89.3951 81.0492 89.3025 81.1672C89.2098 81.2852 89.095 81.3781 88.9578 81.4459C88.813 81.4847 88.6458 81.4984 88.4564 81.4871C88.1144 81.4855 87.7596 81.3787 87.3922 81.1666C87.0538 80.9467 86.8341 80.6484 86.7331 80.2717C86.6555 79.9819 86.6394 79.4582 86.6849 78.7006C86.7226 77.9141 86.7939 76.9632 86.8989 75.848C87.0328 74.7251 87.2091 73.5287 87.4279 72.2588C87.476 72.0906 87.5019 71.8973 87.5055 71.679C87.5013 71.4316 87.4788 71.1737 87.4379 70.9051C87.426 70.6288 87.389 70.3747 87.3268 70.1429C87.288 69.998 87.2637 69.8492 87.2538 69.6966C87.2652 69.5072 87.2805 69.3322 87.2996 69.1718C87.3399 68.9747 87.3813 68.8393 87.4237 68.7659C87.4775 68.503 87.6649 68.3907 87.9857 68.4289C88.2988 68.4382 88.5994 68.5751 88.8877 68.8395C89.431 69.1287 89.7843 69.5776 89.9473 70.1861C90.1394 70.7869 90.1963 71.5791 90.1183 72.5628C90.0567 72.7967 90.0097 73.0268 89.9771 73.2529C89.9657 73.4423 89.9505 73.6172 89.9313 73.7776C89.9044 73.9091 89.8881 74.0221 89.8825 74.1168C89.869 74.1826 89.8623 74.2154 89.8623 74.2154C89.9782 74.1844 90.2041 73.9841 90.5399 73.6146C90.8757 73.2451 91.2762 72.8272 91.7413 72.3609C92.0906 71.9257 92.3896 71.5349 92.6385 71.1887C92.9086 70.8058 93.1402 70.5108 93.3332 70.3038C93.5184 70.0678 93.64 69.9421 93.6979 69.9265C93.8138 69.8955 93.9471 69.8132 94.0977 69.6797C94.2482 69.5461 94.3659 69.4059 94.4508 69.2589C94.5357 69.112 94.6071 69.0307 94.665 69.0152C94.7442 68.9629 94.7838 68.9368 94.7838 68.9368C94.7838 68.9368 94.8417 68.9212 94.9576 68.8902C95.0658 68.8301 95.1623 68.7266 95.2471 68.5797C95.4324 68.3437 95.725 68.2187 96.125 68.2047C96.5172 68.1617 96.9038 68.2134 97.2847 68.3598C97.6655 68.5062 97.8948 68.7243 97.9724 69.0141C98.0035 69.13 98.0596 69.2237 98.1409 69.2951C98.2434 69.3298 98.2946 69.3471 98.2946 69.3471C98.5264 69.285 98.7684 69.6084 99.0204 70.3173C99.3015 71.0184 99.4154 71.7333 99.3621 72.4619C99.4786 72.8966 99.5314 73.4415 99.5206 74.0966C99.5388 74.744 99.5637 75.3585 99.5953 75.9401C99.5576 76.7266 99.569 77.4069 99.6296 77.9807C99.6902 78.5546 99.8 79.0221 99.9589 79.3833C100.118 79.7445 100.301 80.0216 100.508 80.2146C100.678 80.3864 100.74 80.6182 100.694 80.9101C100.64 81.1729 100.44 81.351 100.092 81.4441ZM110.82 81.458C109.825 81.5694 109.076 81.3818 108.573 80.8955C108.106 80.4303 107.805 79.5949 107.668 78.3892C107.694 77.792 107.664 77.2722 107.576 76.8298C107.51 76.3506 107.563 76.0259 107.735 75.8556C107.735 75.8556 107.737 75.8083 107.743 75.7136C107.778 75.6111 107.74 75.5281 107.63 75.4644C107.529 75.0877 107.519 74.5312 107.602 73.7948C107.613 73.6054 107.631 73.3831 107.656 73.128C107.702 72.8362 107.725 72.6902 107.725 72.6902C107.518 72.4972 107.468 72.3089 107.574 72.1252C107.68 71.9415 107.79 71.7722 107.903 71.6175C108.038 71.426 108.01 71.2628 107.819 71.1277C107.73 71.0273 107.732 70.7471 107.826 70.2871C107.913 69.7981 108.024 69.2868 108.161 68.7533C108.297 68.2197 108.374 67.8109 108.391 67.5268C108.376 67.4689 108.394 67.2466 108.446 66.8601C108.497 66.4735 108.562 66.0212 108.641 65.5032C108.72 64.9852 108.795 64.5146 108.868 64.0913C108.97 63.6602 109.035 63.379 109.062 63.2475C109.313 63.025 109.169 62.9546 108.632 63.0365C108.095 63.1183 107.541 63.2513 106.969 63.4356C106.063 63.6473 105.327 63.7979 104.761 63.8875C104.224 63.9693 103.754 63.9554 103.352 63.8457C102.895 63.5332 102.687 63.2784 102.728 63.0812C102.789 62.8473 103.106 62.6382 103.678 62.4539C104.047 62.324 104.333 62.2319 104.535 62.1775C104.767 62.1154 105.053 62.0233 105.393 61.9011C105.754 61.7422 106.314 61.5145 107.074 61.2179L109.244 60.4501L109.176 59.6762C109.307 59.2374 109.406 58.8537 109.473 58.5251C109.562 58.1597 109.621 57.8021 109.652 57.4523C109.682 57.1025 109.68 56.746 109.645 56.3827C109.645 56.3827 109.713 56.1159 109.85 55.5824C109.978 55.0199 110.002 54.4701 109.92 53.933C110.112 53.2602 110.277 52.6571 110.414 52.1236C110.542 51.5611 110.62 51.2141 110.647 51.0827C110.896 50.7365 111.078 50.5478 111.194 50.5168C111.339 50.4779 111.668 50.5452 112.18 50.7185C112.48 50.7935 112.758 50.9053 113.015 51.0538C113.273 51.2022 113.461 51.3846 113.581 51.6009C113.694 51.7882 113.661 52.0144 113.483 52.2793C113.457 52.4108 113.428 52.6514 113.397 53.0012C113.359 53.3221 113.338 53.5917 113.335 53.81C113.215 54.0595 113.087 54.4509 112.95 54.9845C112.835 55.4813 112.796 55.9731 112.833 56.4601C112.734 57.0148 112.637 57.5222 112.542 57.9822C112.441 58.4133 112.332 58.6444 112.216 58.6754C112.351 58.9497 112.564 59.048 112.854 58.9703C113.136 58.8637 113.606 58.7066 114.265 58.499C114.8 58.2936 115.161 58.1347 115.348 58.0223C115.557 57.8733 115.826 57.8324 116.154 57.8996C116.353 58.0637 116.531 58.2644 116.688 58.5019C116.845 58.7394 116.925 58.9819 116.93 59.2292C116.955 59.4398 116.878 59.6158 116.698 59.7571C116.554 59.7959 116.273 59.9643 115.855 60.2624C115.46 60.5238 114.932 60.7583 114.274 60.9658L112.028 61.8004L111.685 63.4763C111.583 63.9074 111.503 64.3017 111.443 64.6593C111.376 64.9879 111.321 65.1889 111.279 65.2624C111.325 65.4363 111.294 65.7242 111.184 66.1263C111.103 66.5206 111.016 66.9478 110.922 67.4079C110.88 67.9471 110.797 68.4506 110.674 68.9184C110.58 69.3784 110.533 69.6084 110.533 69.6084C110.417 69.6395 110.382 69.742 110.429 69.9158C110.667 70.2247 110.694 70.4972 110.508 70.7332C110.387 70.8589 110.291 71.0243 110.222 71.2292C110.174 71.3974 110.15 71.4815 110.15 71.4815C110.297 71.5663 110.35 71.7073 110.31 71.9045C110.298 72.0939 110.262 72.3055 110.2 72.5394C110.262 72.7713 110.279 73.1239 110.251 73.5974C110.251 74.0631 110.23 74.5038 110.186 74.9193C110.354 75.4331 110.473 75.7586 110.541 75.8957C110.608 76.0329 110.696 76.0714 110.804 76.0114C110.957 76.0015 111.088 75.9666 111.196 75.9065C111.304 75.8465 111.416 75.801 111.532 75.7699C111.891 75.4873 111.945 76.5598 111.695 78.9873C111.426 79.836 111.247 80.443 111.158 80.8083C111.077 81.2026 110.965 81.4192 110.82 81.458ZM120.821 74.9581C120.527 74.7884 120.275 74.5452 120.066 74.2285C119.886 73.9041 119.764 73.5641 119.7 73.2086C119.635 72.8531 119.63 72.5439 119.684 72.2811C119.622 72.0492 119.604 71.8676 119.631 71.7362C119.679 71.568 119.673 71.4298 119.613 71.3217C119.553 71.2135 119.528 71.0029 119.537 70.6898C119.546 70.3768 119.56 70.0782 119.577 69.7941C119.655 69.2761 119.725 68.6673 119.786 67.9677C119.839 67.2391 119.882 66.5288 119.914 65.837C119.946 65.1451 119.972 64.5479 119.993 64.0455C120.014 63.543 120.023 63.2299 120.021 63.1063C119.928 62.7585 120.109 62.508 120.565 62.3548C120.882 62.1457 121.142 62.0759 121.347 62.1452C121.545 62.1855 121.85 62.3987 122.264 62.7847C122.558 62.9544 122.738 63.2789 122.804 63.758C122.871 64.2372 122.838 64.8672 122.705 65.6481C122.651 65.911 122.596 66.2831 122.538 66.7643C122.51 67.2378 122.513 67.6562 122.549 68.0194C122.495 68.2823 122.439 68.6544 122.382 69.1356C122.346 69.5801 122.32 70.0063 122.305 70.4141C122.286 70.5745 122.286 70.8073 122.306 71.1126C122.318 71.389 122.323 71.6982 122.322 72.0402C122.312 72.3533 122.266 72.6451 122.183 72.9158C122.241 74.1738 122.181 74.9352 122.004 75.2002C121.855 75.4574 121.461 75.3767 120.821 74.9581ZM120.308 56.1809C120.125 56.0748 119.94 55.9069 119.754 55.6772C119.56 55.4185 119.418 55.1771 119.327 54.953C119.228 54.7 119.222 54.5618 119.309 54.5385C119.533 54.4474 119.743 54.1274 119.937 53.5783C120.132 53.0292 120.153 52.5886 120.002 52.2564C119.971 52.1405 119.987 52.0274 120.051 51.9172C120.107 51.778 120.189 51.6784 120.297 51.6183C120.583 51.2933 120.908 51.1751 121.273 51.2635C121.66 51.3152 122.06 51.5341 122.474 51.9201C122.883 52.4008 123.079 52.845 123.064 53.2528C123.042 53.6316 122.855 54.2096 122.504 54.9869C122.225 55.6829 121.904 56.1104 121.543 56.2693C121.211 56.4204 120.799 56.3909 120.308 56.1809ZM131.482 78.5306C131.339 78.6931 131.128 78.7185 130.85 78.6067C130.6 78.4872 130.211 78.25 129.681 77.895C129.416 77.7176 129.219 77.5062 129.091 77.2609C128.964 77.0157 128.846 76.5191 128.739 75.7714C128.769 75.4216 128.746 75.1018 128.668 74.812C128.62 74.5145 128.58 74.3078 128.549 74.1918C128.502 74.018 128.437 73.6006 128.353 72.9398C128.298 72.2713 128.235 71.5737 128.165 70.8472C128.087 70.0917 128.041 69.5139 128.027 69.1139C128.019 69.085 128.014 69.0086 128.012 68.885C128.01 68.7613 128.012 68.6521 128.017 68.5574C128.005 68.2811 127.985 67.9139 127.955 67.456C127.954 66.9902 127.912 66.427 127.828 65.7662C127.866 64.9796 127.864 64.2192 127.823 63.4849C127.803 62.7139 127.757 62.1979 127.688 61.9371C127.548 61.4155 127.65 60.9845 127.993 60.6439C127.983 60.4913 128.012 60.2507 128.079 59.9221C128.139 59.5645 128.199 59.2687 128.261 59.0348C128.398 57.2278 128.527 55.7957 128.647 54.7385C128.76 53.6523 128.922 52.6927 129.134 51.8595C129.175 51.3203 129.228 50.7627 129.291 50.1868C129.383 49.603 129.506 49.1352 129.66 48.7833C129.704 48.3678 129.909 47.8004 130.276 47.0811C130.634 46.3328 131.03 45.6057 131.462 44.8998C131.886 44.165 132.233 43.6061 132.503 43.2231C133.055 42.7335 133.504 42.3803 133.85 42.1635C134.195 41.9466 134.672 41.7567 135.281 41.5936C135.832 41.4461 136.213 41.4215 136.426 41.5198C136.66 41.5813 137.012 41.7355 137.482 41.9823C138.004 42.3083 138.313 42.5359 138.41 42.6653C138.507 42.7947 138.61 43.0622 138.718 43.4679C138.761 43.8601 138.734 44.3954 138.636 45.0738C138.56 45.7155 138.442 46.3215 138.285 46.8918C138.148 47.4253 137.997 47.7298 137.831 47.8054C137.514 48.0145 137.245 48.0554 137.025 47.9281C136.826 47.7641 136.668 47.4647 136.551 47.0301C136.497 46.8272 136.389 46.6544 136.226 46.5116C136.085 46.332 136.014 46.2423 136.014 46.2423C135.991 46.1553 135.967 46.0066 135.941 45.796C135.937 45.5486 135.966 45.308 136.027 45.0741C136.094 44.7455 136.065 44.5204 135.939 44.3988C135.843 44.2694 135.647 44.2909 135.351 44.4633C135.28 44.5445 135.094 44.7805 134.795 45.1712C134.496 45.5619 134.18 46.0039 133.846 46.4971C133.534 46.9535 133.261 47.3838 133.027 47.788C132.794 48.1921 132.689 48.4377 132.712 48.5246C132.712 48.5246 132.689 48.6705 132.643 48.9624C132.59 49.2253 132.454 49.5878 132.236 50.0499C132.111 50.394 132 50.7343 131.904 51.0706C131.829 51.3703 131.799 51.549 131.815 51.607C131.846 51.7229 131.866 51.8572 131.876 52.0099C131.907 52.1258 131.85 52.2031 131.705 52.242C131.705 52.242 131.697 52.384 131.68 52.6681C131.663 52.9522 131.592 53.3281 131.469 53.7959C131.431 54.1168 131.368 54.4599 131.279 54.8252C131.183 55.1616 131.092 55.4032 131.008 55.5502L131.051 55.5386C131.051 55.5386 131.029 55.7463 130.985 56.1619C130.962 56.5407 130.933 56.9523 130.897 57.3968C130.853 57.8124 130.839 58.0491 130.854 58.1071C130.885 58.223 131.104 58.2266 131.509 58.1179C131.944 58.0014 132.439 57.8221 132.996 57.5798C133.544 57.3086 134.035 57.0529 134.467 56.8128C134.842 56.5882 135.102 56.4565 135.247 56.4176C135.391 56.3788 135.697 56.3591 136.162 56.3586C136.433 56.4413 136.68 56.6082 136.902 56.8592C137.146 57.0734 137.332 57.3031 137.46 57.5484C137.609 57.7569 137.655 57.9308 137.599 58.07C137.601 58.1937 137.325 58.4385 136.771 58.8044C136.217 59.1703 135.651 59.4927 135.074 59.7717C134.583 60.0273 133.981 60.3286 133.266 60.6753C132.551 61.0221 131.92 61.3311 131.371 61.6023C130.852 61.8657 130.604 62.0409 130.627 62.1278C130.511 62.1589 130.429 62.2585 130.381 62.4267C130.325 62.5659 130.309 62.679 130.332 62.7659C130.441 63.1716 130.464 63.4914 130.403 63.7253C130.392 63.9147 130.383 64.2896 130.378 64.85C130.373 65.4104 130.369 66.0327 130.366 66.7168C130.392 67.3931 130.417 68.0076 130.441 68.5603C130.493 69.1052 130.543 69.4646 130.59 69.6384C130.47 69.8879 130.439 70.1758 130.495 70.5024C130.544 70.7999 130.599 71.0646 130.661 71.2964C130.607 71.5593 130.593 71.796 130.619 72.0066C130.636 72.1883 130.661 72.337 130.692 72.453C130.699 72.4819 130.715 72.5399 130.738 72.6268C130.761 72.7138 130.77 72.8046 130.765 72.8993C130.813 73.1968 130.871 73.5852 130.937 74.0643C131.04 74.5647 131.154 75.0467 131.278 75.5104L131.485 76.8059C131.557 77.1903 131.599 77.5207 131.611 77.7971C131.631 78.1024 131.588 78.3469 131.482 78.5306ZM144.008 81.4634C143.402 81.7501 142.971 81.8811 142.716 81.8563C142.461 81.8315 142.103 81.772 141.643 81.6778C141.262 81.5314 140.969 81.4236 140.764 81.3542C140.559 81.2849 140.441 81.1923 140.41 81.0764C140.387 80.9895 140.389 80.8803 140.416 80.7488C140.45 80.6464 140.529 80.5323 140.65 80.4065C140.809 80.302 141.033 80.2109 141.322 80.1332C141.556 80.1948 141.905 80.1634 142.369 80.0392C142.861 79.9072 143.15 79.7677 143.235 79.6208C143.235 79.6208 143.342 79.4989 143.556 79.2551C143.807 79.0326 144.153 78.8157 144.593 78.6046C145.375 77.9292 146.024 77.1651 146.541 76.3123C147.058 75.4594 147.492 74.4115 147.842 73.1685C147.994 72.6929 148.141 72.141 148.283 71.5128C148.433 70.9136 148.497 70.3376 148.473 69.785C148.549 69.1433 148.6 68.291 148.626 67.2281C148.681 66.1575 148.696 65.113 148.672 64.0946C148.639 63.0472 148.572 62.2733 148.469 61.7729C148.208 60.1036 148.083 58.5375 148.095 57.0746C148.128 55.575 148.06 53.9315 147.892 52.1441C147.957 51.6919 148.026 51.4251 148.097 51.3438C148.161 51.2336 148.337 51.1397 148.627 51.062C148.946 50.9766 149.185 50.9435 149.346 50.9626C149.527 50.945 149.762 51.0684 150.051 51.3328C150.488 51.8057 150.764 52.4306 150.879 53.2073C151.015 53.9473 150.969 54.643 150.739 55.2945C150.558 55.7779 150.468 56.4852 150.47 57.4167C150.492 58.3114 150.572 59.4234 150.711 60.7528C150.737 61.4291 150.78 62.2253 150.839 63.1412C150.919 64.0204 151.012 65.0049 151.118 66.0946C151.079 66.4155 151.04 66.9073 151.001 67.5702C150.953 68.2041 150.947 68.7027 150.982 69.066C150.984 69.1897 150.959 69.4448 150.908 69.8313C150.856 70.2179 150.8 70.59 150.741 70.9475C150.689 71.3341 150.65 71.5931 150.623 71.7245C150.122 74.3745 149.314 76.5167 148.199 78.151C147.084 79.7852 145.687 80.8894 144.008 81.4634ZM143.934 67.9729C143.615 68.0583 143.235 67.9737 142.795 67.7192C142.383 67.4569 142.091 67.2398 141.921 67.068C141.728 66.8093 141.509 66.5728 141.265 66.3586C141.022 66.1444 140.806 65.8606 140.618 65.5072C140.459 65.146 140.364 64.6746 140.332 64.093C140.347 63.6852 140.363 63.1064 140.379 62.3566C140.417 61.57 140.454 60.7216 140.489 59.8114C140.554 58.8934 140.622 57.9899 140.695 57.1008C140.788 56.1751 140.88 55.3585 140.97 54.6511C141.052 53.9147 141.156 53.3745 141.281 53.0304C141.393 52.7519 141.542 52.5566 141.73 52.4443C141.946 52.3242 142.186 52.2911 142.449 52.3449C142.704 52.3697 142.957 52.5037 143.209 52.7469C143.636 53.0671 143.86 53.3799 143.879 53.6852C143.899 53.9906 143.79 54.6255 143.551 55.5901C143.521 55.9399 143.469 56.3265 143.396 56.7498C143.315 57.1441 143.29 57.3992 143.321 57.5151C143.308 57.5808 143.304 57.7992 143.311 58.1702C143.338 58.5045 143.347 58.8282 143.338 59.1413C143.329 59.4543 143.281 59.6225 143.194 59.6458C143.109 59.7928 143.068 60.161 143.07 60.7504C143.065 61.3108 143.094 61.9398 143.157 62.6373C143.211 63.3059 143.29 63.8904 143.393 64.3908C143.489 64.8622 143.594 65.0823 143.71 65.0513C144.609 64.8106 145.443 64.2144 146.213 63.2627C147.011 62.3032 147.725 61.025 148.353 59.428L149.919 62.3162C149.568 62.6277 149.249 62.946 148.963 63.271C148.67 63.567 148.417 63.8987 148.205 64.2661C148.149 64.4054 147.989 64.6191 147.725 64.9073C147.46 65.1956 147.192 65.4694 146.92 65.7286C146.669 65.9512 146.5 66.0741 146.413 66.0974C146.413 66.0974 146.373 66.1235 146.294 66.1758C146.236 66.1913 146.223 66.257 146.254 66.3729C146.269 66.4309 146.112 66.5973 145.782 66.8721C145.444 67.1179 145.088 67.3531 144.713 67.5778C144.339 67.8024 144.079 67.9341 143.934 67.9729Z" fill="black"/>
<path d="M196.305 60.5711C195.964 60.766 195.653 60.7664 195.374 60.5722C195.094 60.378 194.855 60.0279 194.657 59.5218C194.479 59.0106 194.371 58.3768 194.334 57.6206C194.369 57.3629 194.384 57.1104 194.38 56.863C194.381 56.635 194.363 56.4534 194.327 56.3182C194.324 56.1533 194.33 55.7893 194.345 55.2263C194.354 54.644 194.372 53.9766 194.399 53.2242C194.444 52.4666 194.482 51.7213 194.514 50.9882C194.559 50.2306 194.597 49.5993 194.627 49.0942C194.672 48.5647 194.706 48.2657 194.729 48.1974C194.806 48.1767 194.856 48.091 194.877 47.9402C194.899 47.7895 194.892 47.6465 194.855 47.5113C194.814 47.3567 194.796 47.1751 194.803 46.9664C194.828 46.7525 194.869 46.5965 194.926 46.4986C194.9 46.402 194.891 46.2905 194.898 46.1643C194.92 46.0135 194.921 45.8995 194.9 45.8222C194.879 45.7449 194.878 45.6625 194.896 45.5749C194.933 45.4821 194.941 45.397 194.92 45.3198C194.979 45.0762 195.047 44.6336 195.124 43.9919C195.214 43.3257 195.308 42.5552 195.405 41.6803C195.516 40.781 195.622 39.8623 195.723 38.9242C195.818 37.9669 195.907 37.0631 195.99 36.2127C196.073 35.3623 196.134 34.6627 196.173 34.1138C196.212 33.5649 196.221 33.2518 196.201 33.1746C196.159 33.02 196.167 32.8938 196.223 32.7958C196.28 32.6978 196.386 32.6281 196.54 32.5867C196.583 32.5132 196.64 32.4565 196.712 32.4164C196.803 32.3712 196.888 32.3383 196.965 32.3176C196.965 32.3176 197.014 32.3459 197.112 32.4024C197.21 32.459 197.357 32.5438 197.553 32.657C197.744 32.7508 197.872 32.8821 197.938 33.0507C198.023 33.2143 198.097 33.4119 198.159 33.6437C198.226 33.8949 198.257 34.1248 198.251 34.3335C198.244 34.5422 198.203 34.8534 198.128 35.2671C198.052 35.6807 197.935 36.3231 197.775 37.1942C197.758 37.3642 197.715 37.6658 197.644 38.0987C197.574 38.5317 197.497 39.0181 197.414 39.558C197.35 40.0927 197.274 40.6204 197.186 41.141C197.112 41.6371 197.049 42.0578 196.996 42.4031C196.963 42.7433 196.952 42.9326 196.962 42.9713C196.983 43.0486 196.975 43.1748 196.94 43.3501C196.923 43.5202 196.907 43.7315 196.892 43.984C196.856 44.1592 196.812 44.4195 196.76 44.7649C196.702 45.0909 196.642 45.4485 196.581 45.8376C196.534 46.2022 196.496 46.5231 196.466 46.8001C196.432 47.0578 196.42 47.206 196.43 47.2446C196.451 47.3219 196.462 47.4018 196.463 47.4842C196.484 47.5615 196.466 47.6491 196.409 47.7471C196.332 47.7678 196.299 47.8387 196.311 47.9598C196.337 48.0564 196.35 48.1047 196.35 48.1047C196.402 48.2978 196.384 48.8512 196.298 49.7647C196.277 50.226 196.257 50.8109 196.24 51.5195C196.223 52.2281 196.199 52.9901 196.169 53.8057C196.154 54.5967 196.142 55.3659 196.135 56.1131C196.129 56.8603 196.127 57.5128 196.132 58.0707C196.161 58.6427 196.204 59.0349 196.261 59.2474C196.385 59.711 196.456 60.0131 196.473 60.1535C196.495 60.3132 196.439 60.4524 196.305 60.5711ZM186.794 53.2429C186.678 53.274 186.533 53.3128 186.36 53.3594C186.181 53.3867 185.974 53.3902 185.741 53.3698C185.451 53.4475 185.251 53.4703 185.138 53.4382C185.021 53.3868 184.906 53.3038 184.792 53.1893C184.502 52.9565 184.431 52.7685 184.579 52.6253C184.722 52.4628 185.14 52.2471 185.834 51.9783C186.031 51.8634 186.434 51.7038 187.041 51.4996C187.649 51.2953 188.376 51.0696 189.22 50.8225C190.079 50.5509 190.97 50.2813 191.892 50.0135C192.834 49.7405 193.739 49.4876 194.608 49.2546C195.472 49.0024 196.233 48.7883 196.89 48.6123C197.541 48.4169 197.993 48.2856 198.244 48.2183C198.746 48.0838 199.089 48.0125 199.274 48.0045C199.458 47.9966 199.685 48.0704 199.954 48.226C200.322 48.4381 200.503 48.6897 200.498 48.9809C200.488 49.2528 200.251 49.4096 199.786 49.4513C199.656 49.5069 199.41 49.5935 199.048 49.7112C198.686 49.8289 198.336 49.9536 197.999 50.0854C197.922 50.1061 197.625 50.196 197.108 50.3551C196.587 50.4948 195.932 50.6805 195.146 50.9121C194.373 51.1191 193.545 51.3514 192.661 51.6088C191.773 51.8469 190.915 52.0869 190.09 52.3288C189.259 52.5514 188.547 52.7526 187.953 52.9324C187.374 53.0877 186.987 53.1912 186.794 53.2429ZM189.93 62.2793C189.589 62.4742 189.269 62.4772 188.969 62.2882C188.69 62.094 188.461 61.7413 188.282 61.23C188.104 60.7188 187.996 60.085 187.959 59.3288C187.994 59.0711 188.009 58.8186 188.005 58.5713C188.006 58.3432 187.988 58.1616 187.952 58.0264C187.949 57.8615 187.955 57.4975 187.97 56.9345C187.979 56.3522 187.997 55.6848 188.023 54.9324C188.069 54.1748 188.107 53.4295 188.139 52.6964C188.184 51.9388 188.222 51.3075 188.252 50.8024C188.297 50.2729 188.331 49.9739 188.354 49.9056C188.431 49.8849 188.48 49.7992 188.502 49.6484C188.524 49.4977 188.517 49.3547 188.48 49.2195C188.439 49.0649 188.421 48.8833 188.428 48.6746C188.453 48.4607 188.494 48.3047 188.551 48.2068C188.525 48.1102 188.516 47.9987 188.523 47.8725C188.545 47.7217 188.545 47.6077 188.525 47.5304C188.504 47.4531 188.503 47.3707 188.521 47.2831C188.558 47.1903 188.566 47.1052 188.545 47.028C188.604 46.7844 188.672 46.3418 188.749 45.7001C188.839 45.0339 188.933 44.2634 189.03 43.3885C189.141 42.4892 189.247 41.5705 189.347 40.6324C189.443 39.6751 189.532 38.7713 189.615 37.9209C189.697 37.0705 189.758 36.3709 189.798 35.822C189.837 35.2731 189.846 34.96 189.826 34.8828C189.784 34.7282 189.792 34.602 189.848 34.504C189.905 34.406 190.01 34.3363 190.165 34.2949C190.207 34.2214 190.265 34.1647 190.337 34.1246C190.428 34.0794 190.513 34.0465 190.59 34.0258C190.59 34.0258 190.639 34.0541 190.737 34.1106C190.835 34.1672 190.982 34.252 191.178 34.3652C191.368 34.459 191.497 34.5903 191.563 34.7589C191.648 34.9225 191.722 35.1201 191.784 35.352C191.851 35.6031 191.882 35.833 191.875 36.0417C191.869 36.2504 191.828 36.5616 191.753 36.9753C191.677 37.3889 191.56 38.0313 191.4 38.9024C191.383 39.0724 191.34 39.374 191.269 39.8069C191.199 40.2399 191.122 40.7263 191.039 41.2662C190.975 41.8009 190.899 42.3286 190.811 42.8492C190.737 43.3453 190.674 43.766 190.621 44.1113C190.588 44.4515 190.577 44.6409 190.587 44.6795C190.608 44.7568 190.6 44.883 190.564 45.0583C190.548 45.2284 190.532 45.4397 190.517 45.6922C190.481 45.8674 190.437 46.1277 190.384 46.4731C190.327 46.7991 190.267 47.1567 190.206 47.5458C190.159 47.9105 190.121 48.2313 190.091 48.5083C190.057 48.766 190.045 48.9142 190.055 48.9528C190.076 49.0301 190.087 49.11 190.088 49.1924C190.109 49.2697 190.091 49.3573 190.034 49.4553C189.957 49.476 189.924 49.5469 189.936 49.668C189.962 49.7646 189.975 49.8129 189.975 49.8129C190.027 50.0061 190.009 50.5594 189.923 51.4729C189.901 51.9342 189.882 52.5191 189.865 53.2277C189.848 53.9363 189.824 54.6983 189.794 55.5139C189.778 56.3049 189.767 57.0741 189.76 57.8213C189.753 58.5685 189.752 59.2211 189.757 59.7789C189.786 60.3509 189.829 60.7431 189.886 60.9556C190.01 61.4192 190.081 61.7213 190.098 61.8617C190.12 62.0214 190.064 62.1606 189.93 62.2793ZM187.009 46.9738C186.893 47.0048 186.748 47.0436 186.574 47.0902C186.395 47.1175 186.189 47.121 185.956 47.1006C185.666 47.1783 185.465 47.2011 185.353 47.169C185.236 47.1176 185.12 47.0346 185.007 46.9201C184.717 46.6873 184.646 46.4993 184.794 46.3561C184.936 46.1936 185.355 45.9779 186.049 45.7091C186.246 45.5942 186.648 45.4346 187.256 45.2304C187.864 45.0261 188.59 44.8004 189.435 44.5533C190.294 44.2818 191.185 44.0121 192.107 43.7443C193.048 43.4713 193.954 43.2184 194.823 42.9854C195.687 42.7332 196.448 42.5191 197.104 42.3431C197.756 42.1477 198.208 42.0164 198.459 41.9491C198.961 41.8146 199.304 41.7433 199.488 41.7353C199.673 41.7274 199.899 41.8012 200.169 41.9568C200.536 42.1689 200.718 42.4205 200.713 42.7117C200.703 42.9836 200.465 43.1404 200 43.1822C199.87 43.2377 199.624 43.3243 199.262 43.442C198.901 43.5597 198.551 43.6844 198.214 43.8162C198.136 43.8369 197.839 43.9268 197.323 44.0859C196.801 44.2257 196.147 44.4113 195.36 44.6429C194.588 44.8499 193.759 45.0822 192.876 45.3396C191.987 45.5777 191.13 45.8177 190.305 46.0596C189.474 46.2822 188.762 46.4834 188.168 46.6632C187.589 46.8185 187.202 46.922 187.009 46.9738ZM207.05 52.8469C206.567 52.9764 206.081 53.0549 205.591 53.0825C205.116 53.0857 204.719 53.0365 204.402 52.9351C204.08 52.8144 203.898 52.6356 203.855 52.3986C203.791 52.0843 203.815 51.902 203.926 51.8516C204.031 51.7819 204.304 51.7191 204.745 51.6632C205.438 51.6224 206.146 51.4431 206.868 51.1253C207.59 50.8075 208.241 50.4158 208.82 49.95C209.4 49.4842 209.823 49.0186 210.092 48.5532C210.479 47.9112 210.576 47.3468 210.384 46.86C210.211 46.3681 209.795 46.0137 209.136 45.7967C208.838 45.6901 208.447 45.6191 207.961 45.5836C207.475 45.5481 207 45.5513 206.535 45.5931C206.084 45.6103 205.726 45.6649 205.461 45.7567C205.292 45.8226 205.147 45.8614 205.026 45.8731C204.924 45.8797 204.73 45.849 204.442 45.7811C204.29 45.6769 204.145 45.5605 204.007 45.4318C203.864 45.2838 203.762 45.1764 203.703 45.1095C203.658 45.0181 203.68 44.9085 203.77 44.7809C203.88 44.648 204.116 44.4088 204.479 44.0631C204.836 43.6981 205.395 43.155 206.154 42.4339C206.847 41.7722 207.388 41.244 207.779 40.8493C208.185 40.4301 208.499 40.0973 208.723 39.851C208.961 39.5802 209.146 39.3442 209.279 39.1431C209.502 38.5862 209.596 38.2402 209.56 38.105C209.524 37.9697 209.241 37.9211 208.713 37.9591C208.22 38.0499 207.748 38.1452 207.299 38.2449C206.849 38.3446 206.635 38.4331 206.656 38.5104C206.656 38.5104 206.646 38.513 206.627 38.5182C206.627 38.5182 206.598 38.5259 206.54 38.5415C206.433 38.5287 206.223 38.5953 205.91 38.7413C205.597 38.8872 205.297 39.0402 205.008 39.2003C204.739 39.3553 204.603 39.4643 204.599 39.5274C204.59 39.5712 204.492 39.6699 204.306 39.8234C204.133 39.9525 203.948 40.0744 203.751 40.1893C203.574 40.2991 203.456 40.3617 203.398 40.3772C203.291 40.3645 203.149 40.2989 202.973 40.1806C202.81 40.0378 202.667 39.8898 202.543 39.7367C202.414 39.5642 202.356 39.4245 202.369 39.3175C202.387 39.2299 202.477 39.1022 202.639 38.9346C202.815 38.7424 203.02 38.5425 203.254 38.3348C203.483 38.1077 203.691 37.9175 203.878 37.7639C204.128 37.6142 204.489 37.4553 204.961 37.2873C205.453 37.114 205.951 36.9601 206.453 36.8255C206.95 36.6716 207.317 36.5733 207.554 36.5305C208.468 36.389 209.216 36.437 209.798 36.6747C210.379 36.9123 210.81 37.3247 211.092 37.9118C211.222 38.1668 211.301 38.3837 211.329 38.5628C211.356 38.7418 211.318 38.9487 211.215 39.1832C211.107 39.3985 210.907 39.7318 210.614 40.1831C210.213 40.6216 209.887 40.9885 209.635 41.2838C209.383 41.5791 208.992 41.9738 208.462 42.4679C208.352 42.6007 208.202 42.7755 208.012 42.9921C207.822 43.2088 207.648 43.4106 207.491 43.5976C207.329 43.7653 207.253 43.8684 207.263 43.9071C207.263 43.9071 207.31 43.9257 207.402 43.9629C207.49 43.9809 207.602 44.013 207.739 44.0592C207.875 44.1054 208.005 44.1638 208.127 44.2346C208.739 44.2776 209.334 44.4496 209.912 44.7503C210.489 45.0511 210.911 45.3108 211.177 45.5295C211.607 46.0559 211.869 46.607 211.961 47.1828C212.073 47.7534 212.022 48.3364 211.809 48.9319C211.59 49.508 211.197 50.0895 210.63 50.6764C210.172 51.1304 209.614 51.5594 208.956 51.9635C208.293 52.3482 207.658 52.6427 207.05 52.8469ZM217.208 49.007C216.877 49.2406 216.586 49.391 216.335 49.4583C216.098 49.5011 215.806 49.4551 215.459 49.3202C214.999 49.0708 214.78 48.7567 214.803 48.3779C214.84 47.9747 215.063 47.5319 215.472 47.0495C215.763 46.7439 215.983 46.5607 216.132 46.4999C216.301 46.434 216.58 46.4317 216.969 46.4931C217.647 46.7049 218.007 47.0433 218.049 47.5083C218.11 47.9682 217.83 48.4677 217.208 49.007ZM226.873 47.3799C226.738 47.4162 226.51 47.4151 226.189 47.3769C225.883 47.3141 225.551 47.2372 225.196 47.1462C224.835 47.0358 224.535 46.9196 224.295 46.7975C223.761 46.5057 223.272 46.1088 222.827 45.6069C222.382 45.105 222.013 44.5411 221.721 43.9154C221.424 43.2703 221.241 42.6257 221.172 41.9816C221.053 40.6883 221.191 39.347 221.585 37.9577C221.973 36.5491 222.525 35.3246 223.24 34.2841C223.623 33.7051 223.987 33.2454 224.33 32.9049C224.669 32.545 225.11 32.2199 225.653 31.9293C225.85 31.8144 226.074 31.7234 226.325 31.6561C226.571 31.5695 226.762 31.508 226.897 31.4718C227.283 31.3683 227.69 31.342 228.118 31.393C228.546 31.4441 228.926 31.5492 229.259 31.7086C229.586 31.8486 229.776 32.0152 229.827 32.2084C229.864 32.3437 229.882 32.4525 229.884 32.5349C229.88 32.5981 229.791 32.6117 229.615 32.5758L229.325 32.6535L229.84 33.4162C229.959 33.55 230.084 33.7444 230.214 33.9994C230.339 34.235 230.43 34.459 230.487 34.6715C230.534 34.8454 230.58 35.1333 230.626 35.5352C230.666 35.9178 230.695 36.3345 230.712 36.7854C230.729 37.2363 230.739 37.6582 230.741 38.0511C230.742 38.4441 230.728 38.7378 230.697 38.9324C230.67 39.0638 230.663 39.1901 230.675 39.3112C230.7 39.4078 230.724 39.4947 230.744 39.572C230.703 39.7279 230.648 40.0224 230.577 40.4553C230.526 40.8831 230.483 41.1846 230.447 41.3599C230.391 41.4578 230.341 41.5436 230.299 41.6171C230.275 41.6854 230.313 41.7478 230.411 41.8044C230.421 41.843 230.407 41.9815 230.367 42.2199C230.322 42.439 230.265 42.651 230.196 42.8559C230.146 43.0556 230.092 43.1633 230.034 43.1788C230.034 43.1788 230.007 43.1962 229.955 43.2311C229.916 43.2414 229.904 43.2756 229.92 43.3335C229.941 43.4108 229.869 43.6473 229.706 44.043C229.538 44.4194 229.327 44.8281 229.072 45.269C228.931 45.5139 228.717 45.7989 228.431 46.1239C228.16 46.4244 227.881 46.6959 227.594 46.9385C227.307 47.181 227.067 47.3282 226.873 47.3799ZM226.297 45.5776C226.51 45.5207 226.705 45.4373 226.883 45.3276C227.055 45.1986 227.191 45.0483 227.29 44.8769C227.575 44.5519 227.88 44.0665 228.204 43.4206C228.523 42.7555 228.721 42.1433 228.799 41.5841C228.934 41.2374 229.018 40.8939 229.051 40.5538C229.098 40.1891 229.153 39.5842 229.217 38.739C229.314 38.4851 229.351 38.1958 229.326 37.8712C229.301 37.5465 229.26 37.278 229.203 37.0655C229.146 36.853 229.069 36.5632 228.97 36.1961C228.891 35.8239 228.857 35.5019 228.867 35.23C228.732 34.7277 228.634 34.4019 228.574 34.2525C228.508 34.0839 228.387 33.9404 228.21 33.822C228.117 33.7848 227.995 33.7553 227.845 33.7336C227.713 33.7067 227.58 33.7114 227.445 33.7476C227.309 33.7838 227.079 33.9284 226.753 34.1813C226.422 34.4149 226.193 34.6007 226.064 34.7387C225.95 34.8522 225.798 34.9032 225.608 34.8919C225.438 34.8753 225.34 34.8188 225.314 34.7222C225.242 34.4517 225.063 34.479 224.777 34.804C224.486 35.1097 224.198 35.5802 223.913 36.2157C223.658 36.6566 223.455 37.0943 223.302 37.5286C223.163 37.9384 223.104 38.182 223.125 38.2593C223.146 38.3366 223.143 38.4409 223.116 38.5724C223.089 38.7038 223.067 38.8546 223.051 39.0246C222.99 39.1857 222.934 39.439 222.882 39.7843C222.829 40.1296 222.777 40.475 222.724 40.8203C222.686 41.1411 222.668 41.384 222.671 41.5489C222.692 41.6262 222.749 41.8387 222.842 42.1864C222.93 42.5148 223.013 42.8239 223.09 43.1137C223.178 43.4421 223.263 43.7196 223.344 43.9463C223.445 44.1678 223.548 44.3577 223.652 44.516C223.752 44.655 223.876 44.8082 224.024 44.9755C224.138 45.09 224.297 45.2232 224.504 45.3749C224.724 45.5022 224.874 45.5967 224.952 45.6585C225.217 45.7947 225.422 45.864 225.567 45.8664C225.708 45.8495 225.951 45.7532 226.297 45.5776ZM235.998 43.9721C235.667 44.2057 235.376 44.3562 235.125 44.4235C234.888 44.4663 234.596 44.4202 234.25 44.2854C233.789 44.036 233.571 43.7219 233.593 43.3431C233.63 42.9398 233.853 42.497 234.262 42.0147C234.553 41.709 234.773 41.5258 234.923 41.4651C235.091 41.3992 235.37 41.3969 235.759 41.4583C236.437 41.67 236.797 42.0084 236.839 42.4735C236.9 42.9333 236.62 43.4329 235.998 43.9721ZM247.092 42.9251C247.045 42.9792 246.968 42.9999 246.861 42.9872C246.759 42.9937 246.637 42.9642 246.495 42.8987C246.359 42.8525 246.207 42.7895 246.041 42.7099C245.943 42.6533 245.871 42.5793 245.826 42.4879C245.776 42.3772 245.743 42.1788 245.729 41.8928C245.714 41.6068 245.685 41.1489 245.64 40.5189C245.614 40.1119 245.597 39.7022 245.59 39.2899C245.584 38.8777 245.585 38.5356 245.595 38.2638C245.6 37.9726 245.602 37.827 245.602 37.827C245.688 37.7625 245.746 37.4365 245.775 36.849C245.823 36.2563 245.86 35.5426 245.885 34.7077C245.889 34.4165 245.903 33.9263 245.925 33.237C245.948 32.5478 245.975 31.8778 246.008 31.2272C246.032 30.6203 246.042 30.0792 246.039 29.6039C246.03 29.1092 246.026 28.8618 246.026 28.8618C246.026 28.8618 245.905 28.9876 245.662 29.2391C245.432 29.4661 245.142 29.7718 244.789 30.1561C244.431 30.5211 244.091 30.9125 243.768 31.3303C243.492 31.6115 243.168 31.9881 242.798 32.4601C242.446 32.9269 242.125 33.3131 241.835 33.6188C241.422 34.1642 241.165 34.4814 241.065 34.5705C240.959 34.6402 240.807 34.65 240.607 34.6C240.299 34.4548 240.065 34.2792 239.907 34.0733C239.767 33.8622 239.73 33.6445 239.794 33.4202C239.827 33.3906 239.922 33.2822 240.079 33.0952C240.256 32.9031 240.446 32.6864 240.651 32.4452C240.855 32.2041 241.043 31.9778 241.214 31.7663C241.404 31.5496 241.54 31.3994 241.621 31.3155C241.679 31.3 241.767 31.2039 241.886 31.0273C242.004 30.8506 242.135 30.681 242.277 30.5185C242.343 30.3768 242.611 30.0254 243.082 29.4644C243.553 28.9034 244.059 28.2812 244.601 27.5977C245.196 26.9619 245.699 26.444 246.11 26.0442C246.54 25.6391 246.796 25.4359 246.878 25.4345C246.936 25.419 247.034 25.4343 247.17 25.4805C247.326 25.5216 247.478 25.5845 247.625 25.6694C247.771 25.7542 247.87 25.852 247.921 25.9628C248.073 26.0669 248.098 26.3916 247.995 26.9366C247.964 27.1312 247.924 27.4836 247.875 27.9938C247.82 28.4848 247.766 29.0581 247.714 29.7139C247.676 30.3453 247.639 30.9766 247.601 31.6079C247.577 32.2147 247.561 32.7365 247.554 33.1732C247.56 33.8135 247.54 34.316 247.492 34.6806C247.464 35.0401 247.434 35.3899 247.401 35.7301C247.382 36.0457 247.375 36.4825 247.379 37.0403C247.327 37.3857 247.288 37.8205 247.263 38.3449C247.252 38.8448 247.251 39.3421 247.259 39.8368C247.262 40.3121 247.273 40.7025 247.293 41.0078C247.252 41.4742 247.228 41.8846 247.219 42.2389C247.211 42.5932 247.168 42.8219 247.092 42.9251Z" fill="black" fill-opacity="0.3"/>
</svg>
