<svg width="32" height="34" viewBox="0 0 32 34" fill="none" xmlns="http://www.w3.org/2000/svg">
<path d="M28.6339 5.04905L26.8584 3.27356C26.7023 3.11587 26.5166 2.99069 26.3118 2.90525C26.107 2.81982 25.8874 2.77583 25.6655 2.77583C25.4436 2.77583 25.224 2.81982 25.0192 2.90525C24.8145 2.99069 24.6287 3.11587 24.4726 3.27356L1.89055 25.8556C1.73286 26.0117 1.60768 26.1975 1.52224 26.4022C1.43681 26.607 1.39282 26.8267 1.39282 27.0485C1.39282 27.2704 1.43681 27.49 1.52224 27.6948C1.60768 27.8996 1.73286 28.0854 1.89055 28.2414L3.66604 30.0169C3.82115 30.1763 4.00662 30.303 4.21151 30.3895C4.4164 30.476 4.63655 30.5206 4.85895 30.5206C5.08135 30.5206 5.3015 30.476 5.50639 30.3895C5.71128 30.303 5.89675 30.1763 6.05186 30.0169L28.6339 7.43487C28.7933 7.27976 28.92 7.09429 29.0065 6.8894C29.093 6.68451 29.1376 6.46436 29.1376 6.24196C29.1376 6.01956 29.093 5.79941 29.0065 5.59452C28.92 5.38963 28.7933 5.20416 28.6339 5.04905Z" stroke="white" stroke-width="2" stroke-linecap="round" stroke-linejoin="round"/>
<path d="M18.0364 9.70973L22.1977 13.871" stroke="white" stroke-width="2" stroke-linecap="round" stroke-linejoin="round"/>
<path d="M5.55249 8.32262V13.871" stroke="white" stroke-width="2" stroke-linecap="round" stroke-linejoin="round"/>
<path d="M24.972 19.4194V24.9679" stroke="white" stroke-width="2" stroke-linecap="round" stroke-linejoin="round"/>
<path d="M12.488 2.7742V5.54841" stroke="white" stroke-width="2" stroke-linecap="round" stroke-linejoin="round"/>
<path d="M8.3267 11.0968H2.77829" stroke="white" stroke-width="2" stroke-linecap="round" stroke-linejoin="round"/>
<path d="M27.7461 22.1937H22.1977" stroke="white" stroke-width="2" stroke-linecap="round" stroke-linejoin="round"/>
<path d="M13.8751 4.16132H11.1009" stroke="white" stroke-width="2" stroke-linecap="round" stroke-linejoin="round"/>
</svg>
