<svg width="35" height="35" viewBox="0 0 35 35" fill="none" xmlns="http://www.w3.org/2000/svg">
<path fill-rule="evenodd" clip-rule="evenodd" d="M24.8369 3.60063C24.9387 3.70223 25.0195 3.82292 25.0747 3.9558C25.1298 4.08868 25.1582 4.23114 25.1582 4.375C25.1582 4.51887 25.1298 4.66132 25.0747 4.7942C25.0195 4.92708 24.9387 5.04778 24.8369 5.14938L12.4841 17.5L24.8369 29.8506C25.0423 30.056 25.1576 30.3346 25.1576 30.625C25.1576 30.9154 25.0423 31.194 24.8369 31.3994C24.6315 31.6048 24.3529 31.7201 24.0625 31.7201C23.7721 31.7201 23.4935 31.6048 23.2881 31.3994L10.1631 18.2744C10.0613 18.1728 9.98046 18.0521 9.92532 17.9192C9.87018 17.7863 9.8418 17.6439 9.8418 17.5C9.8418 17.3561 9.87018 17.2137 9.92532 17.0808C9.98046 16.9479 10.0613 16.8272 10.1631 16.7256L23.2881 3.60063C23.3897 3.49877 23.5104 3.41796 23.6433 3.36282C23.7762 3.30768 23.9186 3.2793 24.0625 3.2793C24.2064 3.2793 24.3488 3.30768 24.4817 3.36282C24.6146 3.41796 24.7353 3.49877 24.8369 3.60063Z" fill="white"/>
</svg>
