<svg width="4" height="13" viewBox="0 0 4 13" fill="none" xmlns="http://www.w3.org/2000/svg">
<path fill-rule="evenodd" clip-rule="evenodd" d="M0.277735 0.0529803C0.396288 -0.00642409 0.533582 -0.0163026 0.659418 0.0255176C0.785254 0.0673378 0.889324 0.157431 0.948735 0.27598L3.94873 6.27598C3.98358 6.34551 4.00172 6.42221 4.00172 6.49998C4.00172 6.57775 3.98358 6.65445 3.94873 6.72398L0.948735 12.724C0.91963 12.7832 0.87909 12.8361 0.829453 12.8796C0.779816 12.923 0.722064 12.9563 0.659526 12.9773C0.596988 12.9984 0.530901 13.0068 0.465075 13.0022C0.39925 12.9976 0.334987 12.98 0.275993 12.9505C0.216999 12.9209 0.16444 12.8799 0.121347 12.83C0.0782535 12.78 0.0454781 12.722 0.0249099 12.6593C0.00434174 12.5966 -0.00361214 12.5304 0.00150676 12.4647C0.00662566 12.3989 0.0247161 12.3347 0.0547351 12.276L2.94173 6.49998L0.0547351 0.72398C-0.00466925 0.605428 -0.014548 0.468133 0.0272722 0.342297C0.0690924 0.216462 0.159186 0.112392 0.277735 0.0529803Z" fill="white"/>
</svg>
