<svg width="4" height="13" viewBox="0 0 4 13" fill="none" xmlns="http://www.w3.org/2000/svg">
<path fill-rule="evenodd" clip-rule="evenodd" d="M3.72298 0.0525806C3.84127 0.111994 3.93117 0.215889 3.97298 0.341485C4.01478 0.467082 4.00507 0.60413 3.94598 0.722581L1.05898 6.49958L3.94698 12.2756C3.977 12.3343 3.99509 12.3985 4.00021 12.4643C4.00533 12.53 3.99738 12.5962 3.97681 12.6589C3.95624 12.7216 3.92346 12.7796 3.88037 12.8296C3.83728 12.8795 3.78472 12.9205 3.72573 12.9501C3.66673 12.9796 3.60247 12.9972 3.53664 13.0018C3.47082 13.0064 3.40473 12.998 3.34219 12.9769C3.27965 12.9559 3.2219 12.9226 3.17227 12.8792C3.12263 12.8357 3.08209 12.7828 3.05298 12.7236L0.0529833 6.72358C0.0181418 6.65405 0 6.57735 0 6.49958C0 6.42181 0.0181418 6.34511 0.0529833 6.27558L3.05298 0.275581C3.1124 0.157293 3.21629 0.0673911 3.34189 0.025588C3.46749 -0.016215 3.60453 -0.00650807 3.72298 0.0525806Z" fill="white"/>
</svg>
