<svg width="42" height="42" viewBox="0 0 42 42" fill="none" xmlns="http://www.w3.org/2000/svg">
<path d="M12.2796 12.2796C12.4004 12.1585 12.5438 12.0625 12.7018 11.9969C12.8597 11.9314 13.029 11.8977 13.2 11.8977C13.371 11.8977 13.5403 11.9314 13.6983 11.9969C13.8562 12.0625 13.9997 12.1585 14.1204 12.2796L21 19.1618L27.8796 12.2796C28.0005 12.1587 28.144 12.0629 28.3019 11.9974C28.4598 11.932 28.6291 11.8984 28.8 11.8984C28.971 11.8984 29.1402 11.932 29.2981 11.9974C29.4561 12.0629 29.5996 12.1587 29.7204 12.2796C29.8413 12.4005 29.9372 12.544 30.0026 12.7019C30.068 12.8598 30.1017 13.0291 30.1017 13.2C30.1017 13.3709 30.068 13.5402 30.0026 13.6981C29.9372 13.856 29.8413 13.9995 29.7204 14.1204L22.8382 21L29.7204 27.8796C29.8413 28.0005 29.9372 28.144 30.0026 28.3019C30.068 28.4598 30.1017 28.6291 30.1017 28.8C30.1017 28.9709 30.068 29.1402 30.0026 29.2981C29.9372 29.456 29.8413 29.5995 29.7204 29.7204C29.5996 29.8413 29.4561 29.9371 29.2981 30.0026C29.1402 30.068 28.971 30.1016 28.8 30.1016C28.6291 30.1016 28.4598 30.068 28.3019 30.0026C28.144 29.9371 28.0005 29.8413 27.8796 29.7204L21 22.8382L14.1204 29.7204C13.9996 29.8413 13.8561 29.9371 13.6981 30.0026C13.5402 30.068 13.371 30.1016 13.2 30.1016C13.0291 30.1016 12.8598 30.068 12.7019 30.0026C12.544 29.9371 12.4005 29.8413 12.2796 29.7204C12.1588 29.5995 12.0629 29.456 11.9975 29.2981C11.9321 29.1402 11.8984 28.9709 11.8984 28.8C11.8984 28.6291 11.9321 28.4598 11.9975 28.3019C12.0629 28.144 12.1588 28.0005 12.2796 27.8796L19.1618 21L12.2796 14.1204C12.1586 13.9996 12.0625 13.8562 11.997 13.6982C11.9314 13.5403 11.8977 13.371 11.8977 13.2C11.8977 13.029 11.9314 12.8597 11.997 12.7018C12.0625 12.5438 12.1586 12.4004 12.2796 12.2796Z" fill="black"/>
</svg>
