<svg width="150" height="150" viewBox="0 0 150 150" fill="none" xmlns="http://www.w3.org/2000/svg">
<mask id="path-1-inside-1_1_420" fill="white">
<path d="M0 75C0 33.5786 33.5786 0 75 0C116.421 0 150 33.5786 150 75C150 116.421 116.421 150 75 150C33.5786 150 0 116.421 0 75Z"/>
</mask>
<path d="M0 75C0 33.5786 33.5786 0 75 0C116.421 0 150 33.5786 150 75C150 116.421 116.421 150 75 150C33.5786 150 0 116.421 0 75Z" fill="white" fill-opacity="0.4"/>
<path d="M-1 75C-1 33.0264 33.0264 -1 75 -1C116.559 -1 150.25 32.6906 150.25 74.25L149.75 75C149.75 34.1309 116.283 1 75 1C34.1309 1 1 34.1309 1 75H-1ZM150.25 75C150.25 116.559 116.559 150.25 75 150.25H74.25C32.6906 150.25 -1 116.559 -1 75H1C1 116.283 34.1309 149.75 75 149.75C116.283 149.75 149.75 116.283 149.75 75H150.25ZM74.25 150.25C32.6906 150.25 -1 116.559 -1 75C-1 33.0264 33.0264 -1 75 -1V1C34.1309 1 1 34.1309 1 75C1 116.283 34.1309 149.75 75 149.75L74.25 150.25ZM75 -1C116.559 -1 150.25 32.6906 150.25 74.25V75C150.25 116.559 116.559 150.25 75 150.25V149.75C116.283 149.75 149.75 116.283 149.75 75C149.75 34.1309 116.283 1 75 1V-1Z" fill="white" mask="url(#path-1-inside-1_1_420)"/>
<path d="M75.0007 22.5C73.8457 22.5 72.7017 22.5372 71.5686 22.6116L71.9886 29.1609C73.9945 29.0291 76.007 29.0291 78.0129 29.1609L78.4329 22.6116C77.2904 22.537 76.1457 22.4998 75.0007 22.5ZM64.7633 23.4975C62.4883 23.9525 60.2745 24.5431 58.122 25.2694L60.2286 31.4906C62.1098 30.8475 64.0436 30.3291 66.0298 29.9353L64.7633 23.5041V23.4975ZM91.8795 25.2759C89.709 24.5412 87.4927 23.9493 85.2448 23.5041L83.9717 29.9353C85.9536 30.3291 87.8873 30.8475 89.7729 31.4906L91.8795 25.2759ZM104.171 31.3463C102.266 30.0715 100.28 28.9227 98.2254 27.9075L95.3182 33.7875C97.1251 34.6844 98.8598 35.6884 100.522 36.7997L104.171 31.3463ZM51.7695 27.9075C49.7089 28.9269 47.7292 30.0731 45.8304 31.3463L49.4792 36.7931C51.1464 35.6787 52.8848 34.6747 54.6833 33.7875L51.7695 27.9075ZM40.3836 35.5266C38.6598 37.0403 37.0411 38.6591 35.5273 40.3828L40.4623 44.7141C41.7879 43.2047 43.2054 41.7872 44.7148 40.4616L40.3836 35.5266ZM114.474 40.3828C112.963 38.6598 111.341 37.0376 109.618 35.5266L105.287 40.4616C106.8 41.7872 108.218 43.2047 109.539 44.7141L114.474 40.3828ZM122.093 51.7688C121.078 49.7162 119.929 47.7323 118.655 45.8297L113.208 49.4784C114.319 51.1409 115.321 52.8756 116.213 54.6825L122.093 51.7688ZM31.347 45.8297C30.0695 47.7241 28.9232 49.7059 27.9082 51.7753L33.7882 54.6825C34.6851 52.8756 35.6892 51.1409 36.8004 49.4784L31.347 45.8297ZM25.2767 58.1213C24.5419 60.2918 23.95 62.5081 23.5048 64.7559L29.9361 66.0291C30.3298 64.0472 30.8482 62.1134 31.4914 60.2278L25.2767 58.1213ZM126.503 64.7625C126.058 62.5124 125.466 60.2939 124.731 58.1213L118.51 60.2278C119.153 62.1091 119.672 64.0428 120.065 66.0291L126.503 64.7625ZM22.6123 71.5678C22.4626 73.8535 22.4626 76.1465 22.6123 78.4322L29.1617 78.0122C29.0299 76.0062 29.0299 73.9938 29.1617 71.9878L22.6123 71.5678ZM127.501 75C127.501 73.855 127.464 72.7104 127.389 71.5678L120.84 71.9878C120.972 73.9938 120.972 76.0062 120.84 78.0122L127.389 78.4322C127.464 77.2896 127.501 76.145 127.501 75ZM23.4982 85.2375C23.9532 87.5125 24.5439 89.7262 25.2701 91.8788L31.4914 89.7722C30.8469 87.8744 30.3274 85.9365 29.9361 83.9709L23.5048 85.2441L23.4982 85.2375ZM124.725 91.8788C125.46 89.7219 126.05 87.5103 126.497 85.2441L120.065 83.9709C119.672 85.9528 119.153 87.8866 118.51 89.7722L124.725 91.8788ZM27.9082 98.2313C28.9237 100.284 30.0724 102.268 31.347 104.17L36.7939 100.522C35.6795 98.8543 34.6755 97.1159 33.7882 95.3175L27.9082 98.2313ZM118.655 104.17C119.932 102.272 121.078 100.29 122.093 98.2247L116.213 95.3175C115.316 97.1244 114.312 98.8591 113.201 100.522L118.655 104.17ZM35.5273 109.617C37.0411 111.341 38.6598 112.96 40.3836 114.473L44.7148 109.538C43.2059 108.215 41.7854 106.795 40.4623 105.286L35.5273 109.617ZM109.618 114.473C111.342 112.96 112.96 111.341 114.474 109.617L109.539 105.286C108.218 106.8 106.8 108.217 105.287 109.538L109.618 114.473ZM98.232 122.093C100.293 121.073 102.272 119.927 104.171 118.654L100.522 113.207C98.8551 114.321 97.1167 115.325 95.3182 116.213L98.232 122.093ZM45.8304 118.654C47.7292 119.931 49.7111 121.078 51.7761 122.093L54.6833 116.213C52.8846 115.323 51.1462 114.317 49.4792 113.2L45.8304 118.654ZM58.122 124.724C60.2789 125.459 62.4904 126.05 64.7567 126.496L66.0298 120.065C64.0642 119.673 62.1263 119.154 60.2286 118.509L58.122 124.724ZM85.2383 126.503C87.4883 126.058 89.7068 125.466 91.8795 124.731L89.7729 118.509C87.8752 119.154 85.9373 119.673 83.9717 120.065L85.2448 126.496L85.2383 126.503ZM71.5686 127.388C73.8542 127.538 76.1473 127.538 78.4329 127.388L78.0129 120.839C76.007 120.971 73.9945 120.971 71.9886 120.839L71.5686 127.388ZM78.282 52.0313C78.282 51.161 77.9363 50.3264 77.3209 49.7111C76.7056 49.0957 75.871 48.75 75.0007 48.75C74.1305 48.75 73.2959 49.0957 72.6806 49.7111C72.0652 50.3264 71.7195 51.161 71.7195 52.0313V71.7188H52.032C51.1618 71.7188 50.3272 72.0645 49.7118 72.6798C49.0965 73.2952 48.7507 74.1298 48.7507 75C48.7507 75.8702 49.0965 76.7048 49.7118 77.3202C50.3272 77.9356 51.1618 78.2813 52.032 78.2813H71.7195V97.9688C71.7195 98.839 72.0652 99.6736 72.6806 100.289C73.2959 100.904 74.1305 101.25 75.0007 101.25C75.871 101.25 76.7056 100.904 77.3209 100.289C77.9363 99.6736 78.282 98.839 78.282 97.9688V78.2813H97.9695C98.8397 78.2813 99.6743 77.9356 100.29 77.3202C100.905 76.7048 101.251 75.8702 101.251 75C101.251 74.1298 100.905 73.2952 100.29 72.6798C99.6743 72.0645 98.8397 71.7188 97.9695 71.7188H78.282V52.0313Z" fill="white"/>
</svg>
