<svg width="35" height="35" viewBox="0 0 35 35" fill="none" xmlns="http://www.w3.org/2000/svg">
<g clip-path="url(#clip0_1_424)">
<path d="M3.28125 2.1875C2.99117 2.1875 2.71297 2.30273 2.50785 2.50785C2.30273 2.71297 2.1875 2.99117 2.1875 3.28125V9.84375C2.1875 10.1338 2.07227 10.412 1.86715 10.6171C1.66203 10.8223 1.38383 10.9375 1.09375 10.9375C0.803669 10.9375 0.52547 10.8223 0.320352 10.6171C0.115234 10.412 0 10.1338 0 9.84375V3.28125C0 2.41101 0.345702 1.57641 0.961056 0.961056C1.57641 0.345702 2.41101 0 3.28125 0L9.84375 0C10.1338 0 10.412 0.115234 10.6171 0.320352C10.8223 0.52547 10.9375 0.803669 10.9375 1.09375C10.9375 1.38383 10.8223 1.66203 10.6171 1.86715C10.412 2.07227 10.1338 2.1875 9.84375 2.1875H3.28125ZM24.0625 1.09375C24.0625 0.803669 24.1777 0.52547 24.3829 0.320352C24.588 0.115234 24.8662 0 25.1562 0L31.7188 0C32.589 0 33.4236 0.345702 34.0389 0.961056C34.6543 1.57641 35 2.41101 35 3.28125V9.84375C35 10.1338 34.8848 10.412 34.6796 10.6171C34.4745 10.8223 34.1963 10.9375 33.9062 10.9375C33.6162 10.9375 33.338 10.8223 33.1329 10.6171C32.9277 10.412 32.8125 10.1338 32.8125 9.84375V3.28125C32.8125 2.99117 32.6973 2.71297 32.4921 2.50785C32.287 2.30273 32.0088 2.1875 31.7188 2.1875H25.1562C24.8662 2.1875 24.588 2.07227 24.3829 1.86715C24.1777 1.66203 24.0625 1.38383 24.0625 1.09375ZM1.09375 24.0625C1.38383 24.0625 1.66203 24.1777 1.86715 24.3829C2.07227 24.588 2.1875 24.8662 2.1875 25.1562V31.7188C2.1875 32.0088 2.30273 32.287 2.50785 32.4921C2.71297 32.6973 2.99117 32.8125 3.28125 32.8125H9.84375C10.1338 32.8125 10.412 32.9277 10.6171 33.1329C10.8223 33.338 10.9375 33.6162 10.9375 33.9062C10.9375 34.1963 10.8223 34.4745 10.6171 34.6796C10.412 34.8848 10.1338 35 9.84375 35H3.28125C2.41101 35 1.57641 34.6543 0.961056 34.0389C0.345702 33.4236 0 32.589 0 31.7188L0 25.1562C0 24.8662 0.115234 24.588 0.320352 24.3829C0.52547 24.1777 0.803669 24.0625 1.09375 24.0625ZM33.9062 24.0625C34.1963 24.0625 34.4745 24.1777 34.6796 24.3829C34.8848 24.588 35 24.8662 35 25.1562V31.7188C35 32.589 34.6543 33.4236 34.0389 34.0389C33.4236 34.6543 32.589 35 31.7188 35H25.1562C24.8662 35 24.588 34.8848 24.3829 34.6796C24.1777 34.4745 24.0625 34.1963 24.0625 33.9062C24.0625 33.6162 24.1777 33.338 24.3829 33.1329C24.588 32.9277 24.8662 32.8125 25.1562 32.8125H31.7188C32.0088 32.8125 32.287 32.6973 32.4921 32.4921C32.6973 32.287 32.8125 32.0088 32.8125 31.7188V25.1562C32.8125 24.8662 32.9277 24.588 33.1329 24.3829C33.338 24.1777 33.6162 24.0625 33.9062 24.0625Z" fill="white"/>
<path d="M6.5625 30.625C6.5625 30.625 4.375 30.625 4.375 28.4375C4.375 26.25 6.5625 19.6875 17.5 19.6875C28.4375 19.6875 30.625 26.25 30.625 28.4375C30.625 30.625 28.4375 30.625 28.4375 30.625H6.5625ZM24.0625 10.9375C24.0625 12.678 23.3711 14.3472 22.1404 15.5779C20.9097 16.8086 19.2405 17.5 17.5 17.5C15.7595 17.5 14.0903 16.8086 12.8596 15.5779C11.6289 14.3472 10.9375 12.678 10.9375 10.9375C10.9375 9.19702 11.6289 7.52782 12.8596 6.29711C14.0903 5.0664 15.7595 4.375 17.5 4.375C19.2405 4.375 20.9097 5.0664 22.1404 6.29711C23.3711 7.52782 24.0625 9.19702 24.0625 10.9375Z" fill="white"/>
</g>
<defs>
<clipPath id="clip0_1_424">
<rect width="35" height="35" fill="white"/>
</clipPath>
</defs>
</svg>
